# xmcd CD database file
#
# Track frame offsets:
#	187
#	17627
#	39137
#	56427
#	75300
#	95427
#	113437
#	132177
#	147875
#	173955
#
# Disc length: 2473 seconds
#
# Revision: 0
# Processed by: cddbd v1.5.1PL0 Copyright (c) Steve Scherf et al.
# Submitted via: CDex 1.51
#
DISCID=6d09a70a
DTITLE=中村大樹 - 小説　〜Roman〜
DYEAR=1900
DGENRE=JPop
TTITLE0=DETECTIVE 2.5
TTITLE1=事件記者
TTITLE2=キミを　終わらない
TTITLE3=小説（ロマン）
TTITLE4=Eden
TTITLE5=WINNING
TTITLE6=エイプリル・フール・サマー
TTITLE7=アールグレイの街
TTITLE8=FAKE
TTITLE9=リエゾン
EXTD=
EXTT0=
EXTT1=
EXTT2=
EXTT3=
EXTT4=
EXTT5=
EXTT6=
EXTT7=
EXTT8=
EXTT9=
PLAYORDER=
